<svg xmlns="http://www.w3.org/2000/svg" width="1254" height="1254" viewBox="0 0 1254 1254" version="1.1">
	<path d="M 607.384 206.089 C 579.142 208.611, 554.422 215.661, 530.220 228.097 C 519.598 233.554, 504.203 243.623, 497.500 249.496 C 495.850 250.942, 491.671 254.615, 488.214 257.659 C 473.908 270.254, 456.817 293.612, 447.588 313.184 C 442.227 324.552, 436.566 340.622, 435.429 347.700 L 434.819 351.500 420.659 351.618 C 391.641 351.858, 368.872 360.546, 343.836 380.930 C 316.457 403.222, 296 444.353, 296 477.110 C 296 484.621, 295.892 485.001, 293.750 485.016 C 289.915 485.042, 273.774 488.807, 268.181 490.979 C 232.811 504.714, 207.926 534.809, 201.509 571.609 C 197.728 593.292, 201.153 618.622, 210.554 638.500 C 223.590 666.062, 243.571 685.888, 272.500 699.964 C 297.925 712.334, 319.712 716.765, 349.931 715.710 C 367.831 715.084, 382.505 712.327, 398.500 706.584 C 408.145 703.121, 408.577 703.056, 410.666 704.747 C 411.857 705.711, 415.907 709.039, 419.666 712.142 C 470.762 754.321, 560.683 768.864, 629 745.998 C 640 742.316, 662.709 731.672, 669.430 727.048 L 674.045 723.873 682.405 729 C 692.076 734.930, 707.225 741.110, 718 743.519 C 722.531 744.532, 732.108 745.400, 742.194 745.712 C 767.336 746.489, 780.065 743.803, 802.599 732.967 C 815.289 726.864, 826.449 718.794, 834.181 710.132 L 838.429 705.372 848.465 708.553 C 866.887 714.391, 875.677 715.505, 903 715.461 C 929.577 715.418, 937.191 714.385, 955.500 708.337 C 1023.541 685.862, 1061.291 621.844, 1043.431 559.219 C 1039.889 546.801, 1031.247 530.074, 1023.134 519.936 C 1006.845 499.581, 980.159 484.272, 954.500 480.563 L 946.500 479.406 945.887 468.953 C 943.969 436.229, 929.910 405.473, 906.123 381.966 C 880.794 356.935, 846.157 342.837, 813.235 344.160 L 803.179 344.564 801.441 338.032 C 797.337 322.599, 788.384 302.557, 779.700 289.363 C 752.642 248.249, 714.058 221.420, 665.500 209.957 C 656.279 207.780, 630.768 204.935, 622.278 205.138 C 619.100 205.213, 612.398 205.641, 607.384 206.089 M 606.175 222.006 C 570.898 225.708, 539.018 237.850, 512 257.874 C 502.986 264.554, 485.216 282.104, 478.729 290.733 C 462.953 311.717, 452.895 334.387, 448.357 359.194 C 446.835 367.514, 446.567 368.108, 444.569 367.607 C 443.386 367.310, 438.162 366.575, 432.959 365.973 C 389.325 360.929, 344.470 387.627, 322.644 431.633 C 314.091 448.879, 310.612 464.317, 310.590 485.114 L 310.576 499.727 298.538 500.282 C 280.473 501.113, 266.532 506.213, 251.380 517.533 C 234.732 529.970, 223.797 546.727, 217.793 569 C 215.230 578.509, 215.006 598.746, 217.337 610.261 C 223.414 640.286, 243.651 666.988, 272.500 683.047 C 293.487 694.729, 312.359 699.858, 337.500 700.711 C 361.428 701.523, 381.215 697.875, 401.376 688.936 C 406.258 686.771, 410.695 685, 411.237 685 C 411.778 685, 415.733 688.304, 420.026 692.342 C 445.658 716.455, 478.963 731.825, 521.503 739.171 C 538.899 742.176, 573.657 742.422, 590.500 739.659 C 622.899 734.346, 648.107 723.997, 673.453 705.603 C 674.289 704.997, 676.800 706.324, 681.203 709.699 C 694.423 719.831, 710.215 726.818, 726.182 729.600 C 738.563 731.757, 762.144 731.032, 773 728.162 C 786.705 724.538, 799.199 718.780, 809.366 711.403 C 816.498 706.228, 828.455 694.716, 830.785 690.781 C 831.670 689.286, 832.868 687.891, 833.447 687.682 C 834.026 687.472, 839.675 689.213, 846 691.550 C 863.889 698.160, 875.333 700.238, 896.783 700.768 C 916.668 701.260, 925.657 700.388, 941.150 696.463 C 969.471 689.287, 994.511 672.835, 1010.896 650.637 C 1033.105 620.548, 1037.425 581.175, 1022.105 548.483 C 1006.766 515.751, 973.173 494.008, 937.930 494.001 L 930.360 494 930.430 477.250 C 930.475 466.429, 930.026 458.553, 929.161 455 C 922.323 426.910, 911.446 407.156, 893.370 390 C 869.103 366.968, 836.263 355.258, 806.322 358.962 C 789.243 361.074, 790.849 361.594, 789.454 353.500 C 785.262 329.186, 772.201 302.291, 754.008 280.510 C 734.129 256.709, 704.334 237.294, 674.113 228.448 C 654.743 222.778, 625.366 219.992, 606.175 222.006 M 463.073 461.635 C 461.933 463.084, 461 465.104, 461 466.124 C 461 468.962, 464.506 477.556, 466.910 480.612 L 469.056 483.341 465.528 486.668 C 462.796 489.245, 462 490.786, 462 493.498 C 462 501.963, 471.687 503.528, 478.371 496.143 C 480.204 494.117, 480.302 494.113, 483.869 495.903 C 494.104 501.041, 508.857 502.770, 518.975 500.019 C 530.645 496.845, 543.226 487.358, 547.891 478.214 C 550.419 473.259, 550.523 471.192, 548.399 468.159 C 544.350 462.379, 538.131 463.566, 533.222 471.058 C 529.536 476.684, 521.812 482.162, 514.937 484.024 C 508.705 485.713, 498.030 484.562, 492.192 481.572 C 486.097 478.450, 479.635 471.722, 477.007 465.763 C 474.712 460.559, 472.668 459, 468.138 459 C 466.096 459, 464.487 459.837, 463.073 461.635 M 773.758 460.076 C 772.800 460.634, 770.893 463.465, 769.520 466.367 C 759.121 488.347, 727.467 491.159, 714.022 471.297 C 708.799 463.581, 702.680 462.336, 698.601 468.159 C 696.179 471.618, 696.631 474.119, 700.862 480.665 C 712.919 499.319, 739.793 506.837, 760.231 497.273 L 766.583 494.300 770.458 497.650 C 775.952 502.399, 781.244 502.267, 783.850 497.316 C 785.799 493.613, 785.145 490.733, 781.510 487.010 L 778.019 483.436 780.563 479.692 C 784.077 474.522, 786.182 468.104, 785.453 464.785 C 784.385 459.924, 778.255 457.456, 773.758 460.076 M 572 533 C 567.368 537.632, 570.296 545.378, 580.607 555.774 C 588.564 563.796, 597.556 568.740, 609.168 571.478 C 622.831 574.699, 639.947 572.589, 652.802 566.100 C 664.477 560.206, 676.968 545.915, 676.991 538.424 C 677.011 531.897, 668.244 528.432, 663.900 533.250 C 662.784 534.487, 660.427 537.525, 658.663 540 C 652.735 548.313, 640.930 554.636, 628 556.423 C 621.792 557.281, 608.460 554.774, 602.103 551.552 C 595.844 548.381, 588.862 542.183, 585.853 537.129 C 584.665 535.133, 583.001 532.938, 582.155 532.250 C 579.782 530.320, 574.273 530.727, 572 533 M 861.500 757.712 C 858.196 758.574, 853.985 761.900, 844.130 771.435 C 834.156 781.085, 831.486 785.382, 832.525 790.115 C 833.436 794.263, 838.734 798, 843.703 798 C 847.272 798, 848.668 797.167, 856.273 790.500 C 860.978 786.375, 865.444 783, 866.196 783 C 866.947 783, 870.249 785.734, 873.531 789.076 C 876.814 792.418, 880.715 795.793, 882.200 796.576 C 890.650 801.032, 900.955 794.444, 899.275 785.659 C 898.628 782.271, 879.973 762.578, 875 760.032 C 871.104 758.037, 864.561 756.913, 861.500 757.712 M 323.758 809.972 C 310.683 810.872, 304.298 813.169, 300.552 818.323 C 298.540 821.091, 298.495 822.400, 298.229 886.138 C 297.963 949.771, 297.999 951.190, 299.959 953.942 C 306.247 962.773, 322.329 961.330, 326.117 951.594 C 326.856 949.695, 327.491 940.489, 327.762 927.750 L 328.202 907 331.351 907.014 C 337.068 907.038, 338.629 908.081, 343.045 914.824 C 366.524 950.680, 390.008 967.021, 403.751 957.066 C 408.388 953.706, 410.534 948.706, 409.452 943.779 C 408.319 938.621, 406.931 937.160, 399.042 932.822 C 390.515 928.132, 383.356 921.714, 374.815 911.105 L 368.862 903.710 375.681 900.852 C 388.609 895.433, 398.668 885.091, 402.991 872.775 C 406.731 862.120, 405.371 845.552, 399.871 834.753 C 394.699 824.599, 379.746 814.488, 365.500 811.512 C 356.414 809.613, 338.543 808.954, 323.758 809.972 M 484.500 812.178 C 476.584 816.312, 475.713 817.910, 461.701 854 C 458.177 863.075, 453.611 875, 451.552 880.500 C 449.494 886, 446.453 894.100, 444.794 898.500 C 439.156 913.455, 438.049 916.493, 433.866 928.500 C 431.566 935.100, 429.478 942.824, 429.226 945.664 C 428.828 950.137, 429.131 951.305, 431.488 954.396 C 435.772 960.012, 444.719 961.688, 450.759 958.005 C 455.154 955.326, 457.034 951.948, 461.488 938.728 C 463.569 932.553, 465.945 926.957, 466.769 926.292 C 467.870 925.405, 475.292 925.140, 494.788 925.292 C 517.476 925.470, 521.345 925.717, 521.557 927 C 522.201 930.880, 530.418 952.261, 532.075 954.368 C 537.942 961.826, 550.616 961.561, 556.097 953.864 C 559.294 949.373, 558.953 943.850, 554.776 932.500 C 552.751 927, 548.630 915.750, 545.617 907.500 C 542.604 899.250, 536.683 883.275, 532.460 872 C 528.236 860.725, 522.430 845.200, 519.557 837.500 C 516.684 829.800, 513.418 822.017, 512.300 820.205 C 506.696 811.122, 493.703 807.371, 484.500 812.178 M 963.623 811.341 C 958.530 812.546, 952.621 818.645, 951.134 824.231 C 950.023 828.405, 948.179 840.754, 944 872 C 942.859 880.525, 941.483 890.425, 940.941 894 C 938.487 910.183, 935.021 940.011, 935.015 945 C 935.002 954.427, 940.229 960, 949.082 960 C 957.396 960, 963.145 953.436, 964.408 942.500 C 967.638 914.550, 971.345 883.392, 972.536 874.199 C 973.341 867.983, 974 862.156, 974 861.249 C 974 860.284, 974.341 859.994, 974.821 860.550 C 975.665 861.525, 977.758 867.312, 997.596 923.500 C 1001.682 935.072, 1005.700 942.392, 1009.055 944.373 C 1015.509 948.186, 1025.234 945.952, 1028.977 939.797 C 1030.016 938.089, 1032.317 932.598, 1034.089 927.595 C 1036.839 919.836, 1045.619 895.866, 1055.824 868.261 C 1058.314 861.524, 1060 859.144, 1060 862.365 C 1060 863.116, 1061.138 873.129, 1062.528 884.615 C 1063.919 896.102, 1066.172 915.146, 1067.535 926.936 C 1069.150 940.908, 1070.620 949.609, 1071.757 951.923 C 1077.812 964.256, 1096.194 961.651, 1098.477 948.136 C 1099.021 944.914, 1093.827 899.106, 1089.957 873 C 1089.427 869.425, 1087.663 856.955, 1086.037 845.289 C 1082.726 821.538, 1081.358 817.589, 1074.978 813.367 C 1071.365 810.976, 1070.341 810.778, 1063.942 811.236 C 1055.513 811.839, 1051.107 814.753, 1046.785 822.582 C 1045.292 825.287, 1038.092 843.575, 1030.785 863.221 C 1023.478 882.868, 1017.264 898.955, 1016.976 898.971 C 1016.688 898.987, 1014.055 892.362, 1011.125 884.250 C 990.405 826.879, 988.391 821.887, 984.040 817.088 C 982.643 815.548, 980.375 813.686, 979 812.951 C 975.418 811.036, 968.135 810.274, 963.623 811.341 M 168 811.681 C 161.619 814.070, 159.606 815.637, 157.868 819.566 C 155.838 824.155, 156.140 828.515, 158.810 833.176 C 161.532 837.926, 165.963 839.072, 183.032 839.442 C 191.539 839.626, 199.063 839.827, 199.750 839.888 C 200.733 839.976, 201 851.646, 201 894.599 C 201 955.301, 200.852 953.891, 207.667 958.103 C 215.263 962.798, 227.681 958.412, 229.953 950.231 C 230.607 947.873, 230.991 926.940, 230.994 893.367 L 231 840.233 233.250 839.630 C 234.488 839.299, 242.296 839.021, 250.602 839.014 C 264.643 839.001, 265.941 838.840, 269.079 836.726 C 271.149 835.331, 273.200 832.650, 274.386 829.788 C 276.250 825.290, 276.256 824.960, 274.566 820.535 C 273.209 816.980, 271.877 815.445, 268.657 813.723 C 264.544 811.524, 263.995 811.498, 217 811.310 C 190.875 811.205, 168.825 811.373, 168 811.681 M 603.001 812.071 C 596.172 814.937, 593.403 819.918, 591.505 832.752 C 585.101 876.051, 577 938.643, 577 944.819 C 577 953.998, 582.680 960, 591.365 960 C 595.267 960, 596.614 959.440, 599.941 956.434 C 602.112 954.473, 604.347 951.435, 604.908 949.684 C 605.469 947.933, 607.300 934.350, 608.976 919.500 C 610.653 904.650, 612.668 887.550, 613.455 881.500 C 614.242 875.450, 615.189 868.062, 615.560 865.083 C 616.018 861.401, 616.502 860.145, 617.070 861.161 C 618.361 863.467, 625.927 884.070, 635.006 910 C 639.531 922.925, 644.318 935.525, 645.642 938 C 648.578 943.486, 652.685 946, 658.713 946 C 666.804 946, 671.501 941.530, 674.997 930.500 C 676.128 926.933, 684.202 904.887, 696.324 872.262 C 698.621 866.081, 700.765 861.018, 701.089 861.012 C 701.413 861.005, 702.676 869.663, 703.894 880.250 C 705.112 890.837, 706.755 904.450, 707.544 910.500 C 708.334 916.550, 709.665 927.560, 710.504 934.966 C 712.195 949.905, 713.805 954.230, 718.985 957.750 C 727.041 963.225, 738.777 958.037, 740.625 948.183 C 741.212 945.057, 739.012 924.593, 734.963 895.500 C 734.427 891.650, 732.641 878.600, 730.995 866.500 C 726.530 833.688, 725.096 824.383, 724.099 821.760 C 721.228 814.209, 713.436 810.196, 703.850 811.331 C 697.613 812.070, 694.777 813.839, 690.813 819.462 C 687.213 824.571, 685.780 828.063, 671.005 867.750 C 664.811 884.388, 659.393 898, 658.965 898 C 658.538 898, 657.515 896.087, 656.692 893.750 C 653.878 885.754, 637.934 842.513, 634.292 833 C 627.944 816.416, 623.154 811.726, 612.109 811.286 C 608.474 811.141, 604.375 811.494, 603.001 812.071 M 828.059 813.216 C 820.609 817.047, 819.758 819.018, 818.762 834.734 C 818.282 842.305, 818.027 870.550, 818.195 897.500 C 818.490 944.937, 818.567 946.628, 820.588 950.500 C 821.822 952.863, 824.278 955.414, 826.588 956.734 C 830.439 958.933, 831.069 958.967, 867.230 958.984 C 907.264 959.001, 909.438 958.734, 913.411 953.307 C 916.205 949.491, 916.576 942.239, 914.174 938.420 C 910.374 932.380, 908.207 932, 877.574 932 L 849.950 932 848.975 929.435 C 848.439 928.024, 848 920.856, 848 913.506 C 848 902.691, 848.300 899.843, 849.571 898.571 C 850.902 897.241, 854.544 896.991, 873.321 896.944 C 887.759 896.907, 896.709 896.471, 898.965 895.694 C 906.097 893.237, 909.107 883.968, 904.974 877.190 C 901.526 871.534, 898.775 871, 873.067 871 C 850.673 871, 850.041 870.945, 848.938 868.884 C 847.334 865.887, 848.054 841.545, 849.798 839.799 C 850.771 838.825, 857.811 838.375, 877.978 838 C 903.286 837.529, 905.025 837.377, 907.680 835.404 C 915.032 829.938, 914.846 819.148, 907.310 814 L 903.650 811.500 868.075 811.216 C 832.719 810.934, 832.473 810.946, 828.059 813.216 M 329.715 837.250 C 328.259 838.341, 328.032 841.149, 327.923 859.378 C 327.824 875.903, 328.079 880.449, 329.149 881.177 C 331.432 882.732, 354.883 881.480, 360.315 879.512 C 365.729 877.551, 371.475 872.192, 373.589 867.133 C 376.791 859.469, 374.430 848.459, 368.376 842.822 C 363.006 837.822, 356.270 836, 343.154 836 C 335.293 836, 330.828 836.415, 329.715 837.250 M 492.081 850.179 C 491.322 851.894, 489.677 856.268, 488.427 859.899 C 487.176 863.529, 483.643 873.471, 480.576 881.992 C 477.509 890.513, 475 897.825, 475 898.242 C 475 898.659, 483.325 899, 493.500 899 C 503.675 899, 512 898.759, 512 898.465 C 512 897.243, 494.845 848.445, 494.183 847.783 C 493.786 847.386, 492.840 848.464, 492.081 850.179 M 489.352 963.692 C 488.170 963.923, 485.496 965.588, 483.409 967.392 C 479.869 970.452, 479.590 971.100, 479.238 977.086 C 478.886 983.068, 479.071 983.751, 481.983 987.226 C 487.525 993.838, 497.059 994.521, 503.603 988.775 C 509.928 983.222, 510.201 973.441, 504.191 967.683 C 500.199 963.859, 495.274 962.534, 489.352 963.692 M 596.197 1010.972 C 593.028 1013.268, 591.755 1015.084, 590.607 1018.953 C 587.859 1028.204, 591.206 1037.188, 601.379 1047.867 C 607.955 1054.771, 623.948 1066, 627.205 1066 C 630.587 1066, 645.435 1055.328, 652.714 1047.665 C 661.390 1038.530, 664.200 1032.988, 664.200 1025.008 C 664.200 1017.968, 661.757 1013.249, 656.398 1009.937 C 653.520 1008.158, 651.770 1007.845, 646.557 1008.177 C 641.009 1008.531, 639.646 1009.049, 635.642 1012.330 C 633.125 1014.393, 630.286 1017.401, 629.332 1019.015 L 627.599 1021.949 622.837 1016.606 C 617.029 1010.090, 612.879 1008, 605.749 1008 C 601.293 1008, 599.552 1008.542, 596.197 1010.972 M 417.500 1023.592 C 396.281 1025.672, 391.633 1026.409, 370.500 1031.043 C 351.970 1035.106, 343.583 1038.114, 343.180 1040.842 C 342.994 1042.100, 343.504 1043.256, 344.395 1043.598 C 345.240 1043.922, 353.259 1043.026, 362.216 1041.605 C 386.531 1037.750, 391.337 1037.105, 405 1035.868 C 420.873 1034.431, 463.671 1034.467, 480 1035.932 C 494.535 1037.236, 523.601 1041.419, 533 1043.559 C 536.575 1044.373, 542.768 1045.571, 546.763 1046.221 C 553.107 1047.253, 554.228 1047.201, 555.616 1045.813 C 557.496 1043.933, 556.733 1040.506, 554.212 1039.505 C 549.821 1037.761, 531.549 1032.740, 523 1030.928 C 498.903 1025.820, 479.789 1023.884, 450 1023.534 C 434.325 1023.350, 419.700 1023.376, 417.500 1023.592 M 777 1024.107 C 754.804 1026.049, 727.524 1031.076, 710.035 1036.446 C 703.833 1038.350, 698.598 1040.069, 698.401 1040.266 C 697.229 1041.437, 697.748 1045.378, 699.198 1046.321 C 700.947 1047.458, 705.376 1046.881, 720 1043.611 C 736.827 1039.849, 764.027 1036.485, 789.335 1035.037 C 805.193 1034.130, 845.366 1035.008, 857.500 1036.526 C 871.799 1038.316, 879.310 1039.396, 893.411 1041.691 C 908.810 1044.196, 909.366 1044.220, 910.671 1042.435 C 912.563 1039.848, 911.098 1038.705, 902 1035.674 C 886.409 1030.480, 860.329 1025.577, 840.050 1024.027 C 824.580 1022.846, 790.922 1022.888, 777 1024.107" stroke="none" fill="black" fill-rule="evenodd"/>
</svg>