<svg width="160" height="160" viewBox="0 0 160 160" fill="none" xmlns="http://www.w3.org/2000/svg" role="img" aria-labelledby="title desc">
  <title id="title">Trạm Êm logo dark</title>
  <desc id="desc">Transparent logo mark for dark backgrounds.</desc>
  <path d="M80 23C55.7 23 36 42.7 36 67C36 91.3 55.7 111 80 111C104.3 111 124 91.3 124 67C124 42.7 104.3 23 80 23Z" fill="#332544"/>
  <path d="M52 74C44.3 74 38 67.7 38 60C38 52.6 43.8 46.5 51.1 46C54.4 36 63.8 29 75 29C87.2 29 97.5 37.6 100 49.1C110.2 50.6 118 59.4 118 70C118 81.6 108.6 91 97 91H60.5C53.6 91 48 85.4 48 78.5C48 77 48.3 75.5 48.8 74.2C49.8 74.1 50.9 74 52 74Z" fill="#1B1127" stroke="#D7C1EF" stroke-width="5" stroke-linecap="round" stroke-linejoin="round"/>
  <path d="M62 66C66.3 62 70.8 62 75 66C79.2 70 83.8 70 88 66C92.2 62 96.8 62 101 66" stroke="#EADDF8" stroke-width="5" stroke-linecap="round"/>
  <path d="M56 101C64 111 72 116 80 116C88 116 96 111 104 101" stroke="#F0B7D2" stroke-width="6" stroke-linecap="round"/>
  <text x="80" y="139" text-anchor="middle" font-family="'Be Vietnam Pro', Arial, sans-serif" font-size="20" font-weight="700" fill="#F7F0FF">Trạm Êm</text>
</svg>
